<svg xmlns="http://www.w3.org/2000/svg" xmlns:xlink="http://www.w3.org/1999/xlink" version="1.1" x="0px" y="0px" viewBox="0 0 255.8555 319.82050000000004" enable-background="new 0 0 255.8555 255.8564" xml:space="preserve"><path d="M72.1768,121.8564H0C3.042,55.9384,55.9385,3.0429,121.8555,0v72.1768  C95.7217,74.9619,74.9609,95.7216,72.1768,121.8564z M214.0234,33.2041C192.6592,13.7441,164.6807,1.4229,133.8555,0v72.1768  c10.9648,1.1689,20.9844,5.502,29.127,12.0694L214.0234,33.2041z M222.5078,41.6884l-51.042,51.0411  c7.748,9.6074,12.3896,21.8242,12.3896,35.1269c0,30.9277-25.0723,56-56,56c-28.9004,0-52.6846-21.8945-55.6787-50H0  c3.1338,67.9063,59.1748,122,127.8555,122c70.6924,0,128-57.3076,128-128C255.8555,94.6679,243.2236,64.4316,222.5078,41.6884z"/><text x="0" y="270.8564" fill="#000000" font-size="5px" font-weight="bold" font-family="'Helvetica Neue', Helvetica, Arial-Unicode, Arial, Sans-serif">Created by HLD</text><text x="0" y="275.8564" fill="#000000" font-size="5px" font-weight="bold" font-family="'Helvetica Neue', Helvetica, Arial-Unicode, Arial, Sans-serif">from the Noun Project</text></svg>