<svg xmlns:dc="http://purl.org/dc/elements/1.1/" xmlns:cc="http://creativecommons.org/ns#" xmlns:rdf="http://www.w3.org/1999/02/22-rdf-syntax-ns#" xmlns:svg="http://www.w3.org/2000/svg" xmlns="http://www.w3.org/2000/svg" version="1.1" viewBox="0 0 100 125" xml:space="preserve" x="0px" y="0px"><path d="M 50,5 C 34.279795,5 21.5625,16.063974 21.5625,31.8125 c 0,22.236126 17.567167,23.126222 18.09375,41.53125 l 20.6875,0 C 60.870314,54.938722 78.4375,54.048626 78.4375,31.8125 78.4375,16.063992 65.720223,5 50,5 z m -10.375,70.09375 0,1.84375 c 0,1.019461 0.824307,1.8125 1.84375,1.8125 l 17.0625,0 c 1.01948,0 1.84375,-0.793039 1.84375,-1.8125 l 0,-1.84375 -20.75,0 z m 1.71875,5.625 c -0.957933,0 -1.71875,0.760817 -1.71875,1.71875 0,0.957933 0.760817,1.75 1.71875,1.75 l 17.3125,0 c 0.957933,0 1.71875,-0.792067 1.71875,-1.75 0,-0.957933 -0.760817,-1.71875 -1.71875,-1.71875 l -17.3125,0 z m 0,5.40625 c -0.957933,0 -1.71875,0.760817 -1.71875,1.71875 0,0.957933 0.760817,1.75 1.71875,1.75 l 17.3125,0 c 0.957933,0 1.71875,-0.792067 1.71875,-1.75 0,-0.957933 -0.760817,-1.71875 -1.71875,-1.71875 l -17.3125,0 z m 3.625,5.65625 C 45.846731,93.678005 47.772509,95 50,95 c 2.227238,0 4.153125,-1.322356 5.03125,-3.21875 l -10.0625,0 z" style="" fill="#000000" fill-opacity="1" fill-rule="evenodd" stroke="none"/><text x="0" y="115" fill="#000000" font-size="5px" font-weight="bold" font-family="'Helvetica Neue', Helvetica, Arial-Unicode, Arial, Sans-serif">Created by ImageCatalog</text><text x="0" y="120" fill="#000000" font-size="5px" font-weight="bold" font-family="'Helvetica Neue', Helvetica, Arial-Unicode, Arial, Sans-serif">from the Noun Project</text></svg>